<?xml version="1.0" encoding="UTF-8"?>
<svg xmlns="http://www.w3.org/2000/svg" width="954" height="406" viewBox="0 0 954 406" fill="none">
  <g opacity="0.3">
    <path d="M563.839 328.869C548.211 337.448 532.543 347.924 517.246 360.162L480.88 328.199C496.195 315.959 511.874 305.493 527.509 296.938L563.839 328.869Z" stroke="#111111"></path>
    <path d="M593.823 314.728C588.635 316.772 583.412 319.042 578.172 321.534L541.862 289.62C547.111 287.133 552.342 284.868 557.537 282.832L593.823 314.728Z" stroke="#111111" stroke-opacity="0.4"></path>
    <path d="M598.959 284.39C594.017 285.546 589.013 286.927 583.961 288.536L571.747 277.802C576.816 276.205 581.837 274.834 586.791 273.698L598.959 284.39Z" stroke="#111111"></path>
    <path d="M773.837 438.054C768.895 439.208 763.891 440.589 758.839 442.198L594.395 297.705C599.463 296.106 604.483 294.735 609.438 293.599L773.837 438.054Z" stroke="#111111" stroke-opacity="0.4"></path>
    <path d="M626.616 280.331C622.073 280.578 617.444 281.051 612.742 281.75L600.637 271.112C605.373 270.433 610.032 269.982 614.598 269.77L626.616 280.331Z" stroke="#111111"></path>
    <path d="M707.675 351.536C703.133 351.781 698.504 352.256 693.803 352.955L623.282 291.012C628.018 290.333 632.677 289.882 637.243 289.67L707.675 351.536Z" stroke="#111111"></path>
    <path d="M801.489 433.989C796.946 434.236 792.318 434.709 787.616 435.408L704.947 362.752C709.684 362.073 714.342 361.622 718.909 361.41L801.489 433.989Z" stroke="#111111"></path>
    <path d="M651.982 281.519C648.013 280.886 643.942 280.472 639.779 280.272L627.903 269.834C632.145 270.085 636.288 270.559 640.315 271.265L651.982 281.519Z" stroke="#111111"></path>
    <path d="M821.429 413.362C817.395 412.998 813.472 412.452 809.664 411.724L798.033 401.502C801.782 402.163 805.641 402.654 809.601 402.967L821.429 413.362Z" stroke="#111111"></path>
    <path d="M797.095 391.976C793.06 391.613 789.136 391.065 785.327 390.337L773.711 380.126C777.462 380.787 781.321 381.277 785.281 381.592L797.095 391.976Z" stroke="#111111" stroke-opacity="0.4"></path>
    <path d="M772.769 370.598C768.734 370.235 764.81 369.687 761.001 368.959L675.356 293.724C679.107 294.385 682.966 294.875 686.926 295.189L772.769 370.598Z" stroke="#111111" stroke-opacity="0.4"></path>
    <path d="M732.518 311.752C727.89 312.195 723.368 312.431 718.959 312.46L699.768 295.59C704.151 295.527 708.641 295.266 713.232 294.8L732.518 311.752Z" stroke="#111111"></path>
    <path d="M799.31 370.416C794.683 370.859 790.161 371.094 785.753 371.124L733.189 324.964C737.571 324.9 742.061 324.639 746.652 324.173L799.31 370.416Z" stroke="#111111"></path>
    <path d="M676.114 285.682C672.08 285.318 668.156 284.772 664.348 284.043L652.716 273.822C656.468 274.483 660.327 274.973 664.287 275.287L676.114 285.682Z" stroke="#111111"></path>
    <path d="M702.648 285.499C698.02 285.942 693.499 286.178 689.09 286.208L677.121 275.688C681.504 275.625 685.994 275.364 690.586 274.898L702.648 285.499Z" stroke="#111111" stroke-opacity="0.4"></path>
    <path d="M731.56 280.309C726.419 281.636 721.381 282.736 716.446 283.609L704.312 272.945C709.233 272.053 714.256 270.941 719.376 269.603L731.56 280.309Z" stroke="#111111"></path>
    <path d="M762.359 270.028C758.327 271.67 754.287 273.202 750.241 274.618L748.399 275.255C747.655 275.508 746.913 275.755 746.173 276.001L733.95 265.257C734.508 265.071 735.069 264.885 735.629 264.695L735.63 264.695C740.465 263.044 745.292 261.229 750.106 259.259L762.359 270.028Z" stroke="#111111" stroke-opacity="0.4"></path>
    <path d="M793.061 255.351C787.749 258.268 782.401 261.007 777.03 263.559L764.754 252.771C770.12 250.212 775.46 247.469 780.767 244.548L793.061 255.351Z" stroke="#111111"></path>
    <path d="M822.994 236.832C817.825 240.395 812.602 243.801 807.334 247.041L795.028 236.225C800.292 232.982 805.511 229.573 810.676 226.008L822.994 236.832Z" stroke="#111111"></path>
    <path d="M823.631 391.793C819.003 392.236 814.482 392.472 810.073 392.502L798.117 381.992C802.5 381.929 806.99 381.668 811.582 381.202L823.631 391.793Z" stroke="#111111" stroke-opacity="0.4"></path>
    <path d="M852.542 386.604C847.402 387.931 842.363 389.03 837.429 389.903L825.308 379.25C830.23 378.357 835.252 377.246 840.372 375.907L852.542 386.604Z" stroke="#111111"></path>
    <path d="M883.343 376.318C878.7 378.209 874.046 379.955 869.385 381.546C868.64 381.799 867.898 382.047 867.157 382.292L821.576 342.269C822.135 342.083 822.696 341.898 823.256 341.708L823.257 341.707C828.092 340.057 832.919 338.242 837.733 336.271L883.343 376.318Z" stroke="#111111"></path>
    <path d="M914.039 361.643C908.728 364.56 903.38 367.3 898.009 369.851L852.375 329.783C857.741 327.224 863.082 324.481 868.389 321.56L914.039 361.643Z" stroke="#111111" stroke-opacity="0.4"></path>
    <path d="M943.971 343.125C938.802 346.687 933.579 350.095 928.312 353.335L916.018 342.529C921.282 339.287 926.501 335.878 931.666 332.313L943.971 343.125Z" stroke="#111111" stroke-opacity="0.4"></path>
    <path d="M847.967 413.179C843.339 413.622 838.817 413.858 834.409 413.888L822.44 403.368C826.822 403.305 831.313 403.044 835.904 402.578L847.967 413.179Z" stroke="#111111"></path>
    <path d="M876.876 407.992C871.736 409.319 866.697 410.418 861.762 411.292L849.629 400.628C854.55 399.735 859.572 398.624 864.692 397.285L876.876 407.992Z" stroke="#111111"></path>
    <path d="M907.676 397.71C903.644 399.352 899.603 400.884 895.557 402.301L893.716 402.937C892.971 403.19 892.23 403.437 891.489 403.683L879.266 392.939C879.825 392.753 880.386 392.568 880.945 392.378L880.946 392.377C885.781 390.727 890.608 388.911 895.422 386.941L907.676 397.71Z" stroke="#111111"></path>
    <path d="M938.372 383.031C933.06 385.948 927.711 388.687 922.34 391.239L910.065 380.451C915.43 377.892 920.771 375.149 926.077 372.228L938.372 383.031Z" stroke="#111111" stroke-opacity="0.4"></path>
    <path d="M968.312 364.516C963.143 368.078 957.921 371.484 952.653 374.724L940.346 363.908C945.61 360.665 950.829 357.256 955.994 353.691L968.312 364.516Z" stroke="#111111"></path>
    <path d="M976.668 318.371C974.488 320.023 972.313 321.709 970.146 323.432L967.819 325.298C965.639 327.062 963.442 328.797 961.235 330.506L948.92 319.683C951.082 318.006 953.233 316.306 955.369 314.579C958.351 312.168 961.348 309.824 964.356 307.549L976.668 318.371Z" stroke="#111111"></path>
    <path d="M754.2 300.21C749.06 301.537 744.021 302.636 739.087 303.51L726.953 292.846C731.874 291.953 736.896 290.842 742.016 289.504L754.2 300.21Z" stroke="#111111"></path>
    <path d="M828.214 365.226C823.074 366.553 818.035 367.651 813.101 368.525L750.266 313.337C755.187 312.444 760.209 311.334 765.329 309.995L828.214 365.226Z" stroke="#111111" stroke-opacity="0.4"></path>
    <path d="M825.646 325.649C821.615 327.291 817.575 328.824 813.529 330.24L811.687 330.877C810.943 331.129 810.201 331.377 809.46 331.622L779.907 305.648C780.465 305.462 781.026 305.277 781.586 305.087L781.587 305.086C786.422 303.436 791.249 301.62 796.063 299.65L825.646 325.649Z" stroke="#111111" stroke-opacity="0.4"></path>
    <path d="M856.342 310.972C851.031 313.889 845.683 316.628 840.312 319.18L810.705 293.16C816.071 290.601 821.411 287.858 826.718 284.937L856.342 310.972Z" stroke="#111111"></path>
    <path d="M919.653 321.751C914.484 325.314 909.262 328.72 903.995 331.96L840.986 276.621C846.251 273.376 851.47 269.965 856.635 266.4L919.653 321.751Z" stroke="#111111"></path>
    <path d="M952.346 296.99C949.384 299.233 946.434 301.542 943.497 303.916C941.313 305.68 939.119 307.416 936.912 309.125L873.883 253.767C876.044 252.092 878.196 250.39 880.332 248.664C883.314 246.253 886.311 243.909 889.319 241.634L952.346 296.99Z" stroke="#111111"></path>
    <path d="M878.329 231.975C875.367 234.218 872.417 236.527 869.48 238.901C867.297 240.665 865.102 242.402 862.896 244.11L827.926 213.376C830.087 211.701 832.239 210 834.375 208.274C837.357 205.862 840.354 203.519 843.362 201.243L878.329 231.975Z" stroke="#111111"></path>
    <path d="M785 289.928C780.968 291.57 776.928 293.103 772.881 294.519L771.04 295.155C770.296 295.408 769.554 295.656 768.814 295.901L756.59 285.158C757.149 284.971 757.71 284.786 758.27 284.596L758.271 284.595C763.106 282.945 767.932 281.13 772.747 279.159L785 289.928Z" stroke="#111111"></path>
    <path d="M815.702 275.249C810.39 278.167 805.041 280.905 799.67 283.457L787.395 272.669C792.76 270.11 798.101 267.367 803.407 264.446L815.702 275.249Z" stroke="#111111"></path>
    <path d="M845.636 256.734C840.467 260.297 835.245 263.703 829.977 266.943L817.67 256.126C822.934 252.884 828.154 249.475 833.318 245.91L845.636 256.734Z" stroke="#111111" stroke-opacity="0.4"></path>
    <path d="M772.964 387.81C768.996 387.177 764.925 386.764 760.763 386.563L650.549 289.733C654.791 289.985 658.934 290.458 662.962 291.165L772.964 387.81Z" stroke="#111111"></path>
    <path d="M826.857 435.174C822.887 434.541 818.817 434.127 814.653 433.927L773.221 397.512C777.463 397.763 781.606 398.236 785.633 398.943L826.857 435.174Z" stroke="#111111"></path>
    <path d="M937.233 423.684C933.201 425.326 929.16 426.859 925.114 428.275L923.273 428.912C922.529 429.164 921.787 429.412 921.047 429.657L902.141 413.042C902.7 412.856 903.261 412.671 903.82 412.481L903.821 412.48C908.656 410.83 913.483 409.015 918.297 407.044L937.233 423.684Z" stroke="#111111"></path>
    <path d="M967.935 409.006C962.623 411.923 957.274 414.662 951.903 417.214L932.946 400.554C938.311 397.995 943.651 395.252 948.958 392.331L967.935 409.006Z" stroke="#111111"></path>
    <path d="M986.078 274.523C980.767 277.587 975.458 280.87 970.166 284.364L861.195 188.626C866.492 185.134 871.806 181.855 877.121 178.796L986.078 274.523Z" stroke="#111111" stroke-opacity="0.4"></path>
    <path d="M666.16 378.261C660.972 380.307 655.75 382.578 650.509 385.07L589.32 331.328C594.569 328.841 599.799 326.577 604.994 324.541L666.16 378.261Z" stroke="#111111"></path>
    <path d="M705.178 412.553C699.99 414.599 694.77 416.87 689.529 419.362L661.696 394.9C666.945 392.413 672.176 390.148 677.371 388.112L705.178 412.553Z" stroke="#111111"></path>
    <path d="M675.196 426.7C659.568 435.279 643.9 445.757 628.603 457.993L528.339 369.908C543.654 357.668 559.333 347.202 574.968 338.647L675.196 426.7Z" stroke="#111111"></path>
    <path d="M1059.78 279.416C1051.01 282.447 1042.12 286.142 1033.18 290.475L895.191 169.235C904.151 164.909 913.061 161.228 921.836 158.218L1059.78 279.416Z" stroke="#111111"></path>
    <path d="M217.291 413.814C212.116 415.782 206.902 417.979 201.668 420.395L189.399 409.611C194.642 407.201 199.863 405.013 205.046 403.053L217.291 413.814Z" stroke="#111111"></path>
    <path d="M246.349 405.066C241.438 406.138 236.464 407.44 231.443 408.966L219.236 398.238C224.279 396.721 229.268 395.434 234.189 394.38L246.349 405.066Z" stroke="#111111"></path>
    <path d="M273.843 401.463C269.336 401.629 264.744 402.022 260.077 402.642L247.985 392.016C252.689 391.419 257.315 391.051 261.844 390.919L273.843 401.463Z" stroke="#111111" stroke-opacity="0.4"></path>
    <path d="M298.962 403.122C295.056 402.416 291.047 401.926 286.946 401.648L275.1 391.237C279.287 391.569 283.373 392.123 287.345 392.909L298.962 403.122Z" stroke="#111111" stroke-opacity="0.4"></path>
    <path d="M323.231 407.107C319.14 406.812 315.162 406.329 311.299 405.665L299.626 395.406C303.436 396.008 307.354 396.436 311.373 396.685L323.231 407.107Z" stroke="#111111" stroke-opacity="0.4"></path>
    <path d="M349.998 406.482C345.316 407.003 340.742 407.313 336.278 407.415L324.288 396.878C328.726 396.744 333.274 396.411 337.922 395.869L349.998 406.482Z" stroke="#111111"></path>
    <path d="M405.48 419.687C400.245 421.208 395.109 422.498 390.074 423.56L355.275 392.977C360.298 391.899 365.421 390.597 370.638 389.065L405.48 419.687Z" stroke="#111111" stroke-opacity="0.4"></path>
    <path d="M514.224 471.726C508.857 474.168 503.47 476.422 498.07 478.474L389.169 382.797C394.561 380.735 399.941 378.475 405.298 376.028L514.224 471.726Z" stroke="#111111"></path>
    <path d="M605.606 459.88C591.349 470.547 576.602 480.058 561.594 488.153L423.592 366.9C438.593 358.786 453.326 349.266 467.571 338.599L605.606 459.88Z" stroke="#111111" stroke-opacity="0.4"></path>
  </g>
</svg>
