<svg version="1.2" xmlns="http://www.w3.org/2000/svg" viewBox="0 0 1050 172" width="1050" height="172"><style></style><path  d="m13.5 166h21.2v-64.6h29.9v-29.2h-29.9v-34.5h33.5v-29.2h-54.7zm121.7 0l-18.2-157.5h-33.8l-18.2 157.5h20.7l3.4-30.8h22.2l3.4 30.8zm-42.7-60.1l7.6-68.2h0.7l7.2 68.2zm76.9 61.2c19.3 0 31.5-14.6 31.5-34v-24h-20.7v15.3c0 8.5-3.8 13.5-10.6 13.5-6.7 0-10.6-5-10.6-13.5v-74.7c0-8.4 3.9-13.1 10.4-13.1 6.5 0 10.3 4.7 10.3 13.1v13.2h20.7v-21.8c0-19.1-12.1-33.7-31.3-33.7-19.1 0-31.2 14.6-31.2 33.7v92c0 19.4 12.1 34 31.5 34zm70.4 0c19.4 0 31.5-14.6 31.5-34v-124.6h-21.1v116.3c0 8.3-3.9 13.1-10.4 13.1-6.5 0-10.3-4.8-10.3-13.1v-116.3h-21.2v124.6c0 19.4 12.2 34 31.5 34zm76.7-1.1h21.2v-128.3l18.9 0.1v-29.3h-59v29.3h18.9zm46 0h53.8v-29.3h-32.6v-35.3h28.1v-29.3h-28.1v-34.4h31v-29.2h-52.2zm127.7 0l-18.2-157.5h-33.7l-18.3 157.5h20.7l3.4-30.9h22.3l3.4 30.9zm-42.8-60.1l7.7-68.2h0.7l7.2 68.2zm76.8 61.2c19.4 0 31.5-14.6 31.5-34v-24.1h-20.7v15.3c0 8.6-3.8 13.5-10.5 13.5-6.8 0-10.6-4.9-10.6-13.5v-74.7c0-8.3 3.8-13 10.3-13 6.6 0 10.4 4.7 10.4 13v13.3h20.7v-21.8c0-19.1-12.2-33.8-31.3-33.8-19.1 0-31.3 14.7-31.3 33.8v92c0 19.4 12.2 34 31.5 34zm38.2-1.1h21.2v-64.6h18.4v64.5h21.2v-157.4h-21.2v63.6h-18.4v-63.6h-21.2zm70 0h53.8v-29.3h-32.6v-35.3h28.1v-29.3h-28.1v-34.4h31v-29.2h-52.2zm90.7 1.1c19.4 0 31.5-14.6 31.5-34v-18.5c0-21.6-8.3-29.9-22.7-41.1l-10.4-8.1c-5.8-4.7-8.3-9-8.3-15.8v-0.4c0-8.1 3.8-12.6 10.1-12.6 6.3 0 10.2 4.5 10.2 12.8v13.5h20.7v-22.1c0-19.3-11.7-33.5-31.1-33.5-19.3 0-31 14.2-31 33.5v15.6c0 21.6 8.1 30.8 21.8 41.8l11.2 9c6.3 5 8.4 9 8.4 15.8v1.6c0 8.3-4.1 13.2-10.6 13.2-6.8 0-10.6-4.9-10.6-13.2v-15.6h-20.7v24.1c0 19.4 12.2 34 31.5 34zm81.6 0c10.8 0 18.2-6.8 20.2-13.5h0.5l0.9 12.4h18.9v-87.6h-34.7v29.3h13.5v16.6c0 8.6-3.8 13.5-10.5 13.5-6.8 0-10.6-4.9-10.6-13.5v-74.7c0-8.3 3.8-13 10.3-13 6.6 0 10.4 4.7 10.4 13v13.3h20.7v-21.8c0-19.2-12.2-33.8-31.3-33.8-19.1 0-31.3 14.6-31.3 33.8v98.8c0 17.5 8.8 27.2 23 27.2zm79.5 0c19.4 0 31.5-14.6 31.5-34v-91.8c0-19.4-12.1-34-31.5-34-19.3 0-31.5 14.7-31.5 34v91.8c0 19.4 12.2 34 31.5 34zm-10.3-42.3v-75.2c0-8.3 3.8-13 10.3-13 6.6 0 10.4 4.7 10.4 13v75.2c0 8.3-3.8 13-10.4 13-6.5 0-10.3-4.7-10.3-13zm50.5 41.1h49.5v-29.2h-28.3v-128.3l-21.2 0.1zm56 0h21.2v-64.6h29.9v-29.3h-29.9v-34.4h33.5v-29.2h-54.7z"/></svg>