<?xml version="1.0" encoding="UTF-8"?>
<svg xmlns="http://www.w3.org/2000/svg" width="600" height="192" viewBox="0 0 600 192" fill="none">
  <g opacity="0.6">
    <g opacity="0.4">
      <path d="M1203.19 46.9277L1203.19 46.9277C1203.37 46.9277 1203.55 46.9284 1203.73 46.9336L1203.73 46.9336C1204.86 46.9548 1205.99 47.0606 1207.12 47.2207C1207.15 47.2251 1207.17 47.2279 1207.19 47.2295C1207.22 47.2316 1207.24 47.2328 1207.25 47.2334C1207.26 47.2337 1207.26 47.2342 1207.27 47.2344L1207.27 47.2344L1207.29 47.2363C1208.16 47.3679 1209.04 47.5415 1209.91 47.7568L1210.78 47.9853C1210.8 47.9916 1210.83 48.0007 1210.88 48.0195L1211.05 48.082C1211.48 48.208 1211.87 48.3697 1212.35 48.5342L1212.35 48.5351C1213.04 48.7715 1213.68 48.9518 1214.31 49.2168C1214.36 49.2427 1214.43 49.2748 1214.51 49.3183C1214.58 49.3586 1214.68 49.4107 1214.78 49.4551C1215.36 49.7119 1215.92 50.0179 1216.52 50.3291L1216.52 50.3291C1217.09 50.6163 1217.53 50.7902 1218.02 51.0752C1218.07 51.1062 1218.13 51.146 1218.21 51.2051C1218.28 51.2587 1218.37 51.3297 1218.48 51.3926L1218.48 51.3935C1219.36 51.9265 1220.21 52.5468 1221.07 53.1894C1221.27 53.3364 1221.47 53.4662 1221.65 53.583C1221.84 53.7035 1222.01 53.8144 1222.16 53.9404L1222.16 53.9414C1222.19 53.9628 1222.22 53.9887 1222.26 54.0332L1222.43 54.1806C1222.6 54.3218 1222.76 54.466 1222.92 54.6162L1223.44 55.0879C1224.18 55.7478 1224.91 56.4309 1225.62 57.165L1225.62 57.166C1226 57.5611 1226.36 57.9795 1226.74 58.415C1227.15 58.869 1227.47 59.1814 1227.82 59.6094L1227.82 59.6103C1227.88 59.6866 1227.94 59.7788 1228.02 59.8974C1228.09 60.0071 1228.17 60.1466 1228.27 60.2734L1228.27 60.2793C1229.61 61.9868 1230.88 63.7888 1232.03 65.8056L1343.4 262.188L1343.4 262.188C1344.26 263.702 1345.04 265.272 1345.74 266.879L1345.74 266.879C1345.81 267.038 1345.86 267.21 1345.92 267.413C1345.98 267.607 1346.04 267.834 1346.13 268.057C1346.66 269.361 1347.11 270.696 1347.52 272.055L1347.92 273.42C1348.04 273.813 1348.18 274.193 1348.31 274.545C1348.44 274.904 1348.56 275.241 1348.65 275.586L1348.65 275.587C1348.68 275.715 1348.7 275.848 1348.72 275.998C1348.75 276.143 1348.77 276.308 1348.81 276.474L1348.81 276.48C1348.96 277.117 1349.05 277.738 1349.18 278.423L1349.18 278.426C1349.39 279.498 1349.63 280.486 1349.76 281.52L1349.76 281.522C1349.88 282.371 1349.91 283.194 1349.99 284.095C1350.02 284.362 1350.04 284.613 1350.06 284.86L1350.13 285.607C1350.14 285.798 1350.16 285.988 1350.18 286.16C1350.2 286.339 1350.22 286.503 1350.22 286.663L1350.22 286.666C1350.3 288.242 1350.3 289.82 1350.25 291.397L1350.25 291.404C1350.25 291.581 1350.24 291.759 1350.22 291.948C1350.2 292.133 1350.18 292.336 1350.17 292.537L1350.17 292.539C1350.15 292.951 1350.12 293.346 1350.09 293.775C1350.02 294.549 1350.01 295.237 1349.93 295.968L1349.93 295.969C1349.76 297.486 1349.54 298.992 1349.25 300.486L1349.25 300.502L1349.25 300.518C1349.24 300.544 1349.24 300.576 1349.22 300.627C1349.21 300.669 1349.19 300.744 1349.18 300.812L1349.18 300.82L1349.11 301.144C1349.08 301.249 1349.05 301.36 1349.02 301.502L1349.02 301.506L1348.83 302.415C1348.63 303.32 1348.43 304.213 1348.19 305.089L1348.18 305.09C1347.94 305.974 1347.63 306.815 1347.32 307.717L1347.32 307.725L1347.09 308.438C1347.02 308.669 1346.95 308.894 1346.86 309.119L1346.86 309.127L1346.71 309.584C1346.67 309.73 1346.63 309.861 1346.58 309.987L1346.58 309.988C1345.84 311.913 1344.99 313.788 1344.04 315.588C1344.03 315.596 1344.02 315.611 1344.01 315.627C1344 315.642 1343.99 315.665 1343.98 315.69L1343.98 315.689C1342.74 318.009 1341.33 320.219 1339.74 322.267L1269.05 413.435C1262.03 422.48 1252.78 427.076 1243.52 427.055L422.026 425.318C428.953 423.486 435.51 419.106 440.795 412.295L511.493 321.127L511.493 321.126C513.117 319.031 514.556 316.779 515.817 314.414C516.964 312.268 517.925 310.018 518.767 307.714L518.768 307.711C518.931 307.255 519.091 306.712 519.235 306.286L519.236 306.283C519.923 304.222 520.523 302.117 520.971 299.96L520.972 299.96C521.01 299.787 521.091 299.495 521.135 299.262L521.134 299.262C521.596 296.903 521.889 294.504 522.064 292.099L522.064 292.098C522.093 291.699 522.13 291.272 522.152 290.855C522.277 288.505 522.262 286.149 522.108 283.798L522.107 283.799C522.078 283.283 522.018 282.755 521.977 282.272L521.977 282.271C521.8 280.325 521.507 278.4 521.149 276.496L521.149 276.495C521.03 275.864 520.923 275.174 520.775 274.516L520.774 274.514C520.531 273.449 520.151 272.386 519.866 271.403C519.341 269.557 518.762 267.721 518.041 265.94C517.218 263.908 516.344 261.87 515.252 259.947L515.251 259.948L403.881 63.5645C402.703 61.4928 401.395 59.6438 400.041 57.9111L400.039 57.9092C399.531 57.2659 399.014 56.6177 398.474 56.0059C398.099 55.5823 397.714 55.1403 397.321 54.7266L397.32 54.7256C396.588 53.96 395.836 53.263 395.075 52.5879C394.767 52.3144 394.396 51.9527 394.043 51.6621C393.585 51.2826 393.062 50.9404 392.646 50.6309C391.78 49.9803 390.9 49.3407 389.978 48.7812C389.305 48.3697 388.619 48.0201 387.956 47.6768L387.954 47.6768C387.382 47.3823 386.777 47.05 386.164 46.7773L386.161 46.7764C385.536 46.5021 384.905 46.2628 384.273 46.041L383.643 45.8242C383.264 45.6972 382.76 45.4943 382.316 45.3643L382.314 45.3633C382.106 45.3031 381.897 45.2488 381.687 45.1924L1203.19 46.9277Z" stroke="#F4F4EA"></path>
      <path d="M232.225 241.445C231.397 228.431 234.801 214.982 242.64 204.871L355.914 58.7939C363.733 48.7095 374.083 44.3324 384.067 45.2949C394.056 46.2579 403.766 52.574 410.272 64.0459L521.644 260.429C532.074 278.839 530.497 304.339 517.964 320.507L447.267 411.675C441.033 419.713 433.03 424.235 424.83 425.127C416.633 426.018 408.19 423.287 401.057 416.729L247.108 275.256C238.106 266.983 233.052 254.461 232.225 241.445Z" stroke="#F4F4EA"></path>
      <path d="M188.712 243.035C187.637 226.569 191.915 209.552 201.831 196.765L340.052 18.5225C349.417 6.44734 362.577 -0.0920605 376.151 0.542964C391.061 1.23141 404.519 10.2071 413.058 25.2451L548.953 264.876C554.805 275.211 557.692 287.229 557.692 299.212C557.692 314.282 553.129 329.255 544.249 340.709L457.984 451.954L457.984 451.955C449.562 462.825 438.189 469.181 425.973 469.896C415.019 470.537 404.187 466.493 395.474 458.486L207.622 285.853C196.211 275.362 189.787 259.503 188.712 243.035ZM194.645 238.213C194.645 255.308 200.725 272.287 212.582 283.182L400.434 455.814C407.877 462.653 416.535 466.02 425.457 465.497C435.545 464.908 445.135 459.331 452.483 449.863L538.749 338.618C553.428 319.687 555.493 289.352 543.697 267.52L543.125 266.486L407.229 26.8555C399.685 13.5498 388.216 5.5194 375.748 4.9414C364.488 4.41846 353.765 10.0222 345.545 20.6143L207.324 198.856C198.79 209.856 194.645 224.102 194.645 238.213Z" stroke="#F4F4EA"></path>
      <g opacity="0.8">
        <path d="M126.028 243.039C124.956 226.571 129.235 209.552 139.147 196.765L277.36 18.5225C286.579 6.63605 299.475 0.112937 312.824 0.517574L313.461 0.542964C328.371 1.23141 341.827 10.2073 350.366 25.2451L486.27 264.876C492.122 275.205 495.002 287.229 495.002 299.207C495.002 314.283 490.439 329.255 481.559 340.709L395.301 451.954C386.871 462.824 375.498 469.181 363.289 469.896C352.335 470.537 341.495 466.494 332.782 458.486L144.931 285.853C133.52 275.367 127.101 259.508 126.028 243.039ZM131.954 238.219C131.954 255.314 138.034 272.287 149.892 283.182L337.743 455.814C344.954 462.439 353.304 465.807 361.931 465.535L362.767 465.497C372.539 464.927 381.851 459.675 389.104 450.739L389.8 449.863L476.058 338.618C490.977 319.386 492.858 288.386 480.442 266.486L344.539 26.8555C336.995 13.5495 325.525 5.51919 313.057 4.9414C301.797 4.41853 291.075 10.0223 282.854 20.6143L144.641 198.856C136.114 209.856 131.954 224.102 131.954 238.219Z" stroke="#F4F4EA"></path>
      </g>
      <g opacity="0.4">
        <path d="M63.3408 243.031C62.2686 226.564 66.5487 209.547 76.4648 196.765L214.679 18.5225C224.044 6.44733 237.204 -0.0919983 250.778 0.542964L250.779 0.542964C265.696 1.23159 279.153 10.2075 287.685 25.2451L423.588 264.876C429.44 275.211 432.32 287.229 432.32 299.207C432.32 314.283 427.764 329.255 418.884 340.709L332.618 451.954L332.618 451.955C324.195 462.825 312.823 469.181 300.606 469.896C289.653 470.537 278.82 466.494 270.107 458.486L82.249 285.853C70.8347 275.362 64.4132 259.5 63.3408 243.031ZM69.2715 238.213C69.2715 255.308 75.3592 272.286 87.209 283.181L87.2099 283.181L275.068 455.814C282.279 462.439 290.629 465.807 299.256 465.535L300.092 465.497C310.18 464.908 319.769 459.331 327.117 449.863L327.118 449.863L413.383 338.618C428.295 319.386 430.168 288.386 417.76 266.486L281.856 26.8555C274.312 13.5498 262.85 5.51919 250.382 4.9414C239.122 4.41852 228.4 10.0217 220.173 20.6133L220.172 20.6143L81.959 198.856C73.432 209.856 69.2715 224.101 69.2715 238.213Z" stroke="#F4F4EA"></path>
      </g>
      <g opacity="0.2">
        <path d="M0.661119 243.036C-0.413818 226.57 3.86413 209.553 13.7803 196.766L152.001 18.5234C161.366 6.44832 174.526 -0.091083 188.101 0.543939C203.01 1.23238 216.468 10.2081 225.007 25.2461L360.902 264.877C366.761 275.211 369.635 287.235 369.635 299.213C369.635 314.289 365.079 329.262 356.199 340.71L269.934 451.955L269.934 451.956C261.511 462.826 250.138 469.182 237.922 469.897C226.968 470.538 216.136 466.494 207.423 458.487L19.5713 285.854C8.16043 275.363 1.73618 259.504 0.661119 243.036ZM6.59374 238.214C6.59374 255.309 12.6737 272.288 24.5312 283.183L212.383 455.815C219.826 462.654 228.484 466.021 237.406 465.498C247.494 464.909 257.084 459.332 264.433 449.864L350.698 338.619C365.611 319.387 367.476 288.387 355.075 266.487L355.074 266.487L219.179 26.8564C211.635 13.5507 200.166 5.52036 187.697 4.94238C176.43 4.41944 165.715 10.0232 157.494 20.6152L19.2734 198.857C10.7465 209.857 6.59379 224.102 6.59374 238.214Z" stroke="#F4F4EA"></path>
      </g>
    </g>
  </g>
</svg>
