<?xml version="1.0" standalone="no"?>
<!DOCTYPE svg PUBLIC "-//W3C//DTD SVG 20010904//EN"
 "http://www.w3.org/TR/2001/REC-SVG-20010904/DTD/svg10.dtd">
<svg version="1.0" xmlns="http://www.w3.org/2000/svg"
 width="400.000000pt" height="400.000000pt" viewBox="0 0 400.000000 400.000000"
 preserveAspectRatio="xMidYMid meet">

<g transform="translate(0.000000,400.000000) scale(0.100000,-0.100000)"
fill="#000000" stroke="none">
<path d="M0 2000 l0 -2000 2000 0 2000 0 0 2000 0 2000 -2000 0 -2000 0 0
-2000z m2625 1228 c6 -6 -40 -277 -115 -678 -23 -126 -80 -437 -91 -500 -11
-63 -53 -298 -84 -470 -54 -294 -94 -516 -100 -557 l-7 -43 56 0 c66 0 65 4
38 -130 l-17 -85 -167 -3 c-124 -2 -168 1 -168 9 0 7 9 62 20 123 11 61 41
224 66 361 25 138 54 300 64 360 11 61 35 198 55 305 20 107 42 231 50 275 15
88 121 682 160 894 14 74 31 139 38 143 14 10 193 6 202 -4z m-520 -230 c-9
-57 -41 -244 -60 -343 -8 -44 -34 -183 -56 -310 -22 -126 -55 -313 -74 -415
-18 -102 -50 -277 -70 -390 -20 -113 -50 -277 -66 -365 -16 -88 -29 -168 -29
-177 0 -15 9 -18 50 -18 48 0 50 -1 49 -27 0 -16 -8 -64 -17 -108 l-17 -80
-162 -3 c-182 -3 -170 -9 -154 75 5 26 17 91 26 143 9 52 23 129 30 170 8 41
26 143 40 225 15 83 42 233 60 335 18 102 50 277 70 390 20 113 43 239 50 280
8 41 19 102 24 135 6 33 19 111 31 173 11 61 29 162 39 222 11 61 23 115 26
120 3 6 52 10 111 10 l106 0 -7 -42z m-471 -126 c2 -4 -4 -53 -15 -107 -10
-55 -19 -101 -19 -102 0 -2 -49 -3 -110 -3 -77 0 -110 3 -110 12 0 14 30 178
35 196 5 14 210 18 219 4z"/>
</g>
</svg>
